<?xml version="1.0" encoding="UTF-8"?>
<!DOCTYPE svg PUBLIC "-//W3C//DTD SVG 1.1//EN" "http://www.w3.org/Graphics/SVG/1.1/DTD/svg11.dtd">
<svg xmlns="http://www.w3.org/2000/svg" version="1.1" width="78px" height="40px" style="shape-rendering:geometricPrecision; text-rendering:geometricPrecision; image-rendering:optimizeQuality; fill-rule:evenodd; clip-rule:evenodd" xmlns:xlink="http://www.w3.org/1999/xlink">
<g><path style="opacity:0.63" fill="#fec700" d="M -0.5,-0.5 C 16.8333,-0.5 34.1667,-0.5 51.5,-0.5C 51.8324,8.58713 51.4991,16.9205 50.5,24.5C 50.5,16.8333 50.5,9.16667 50.5,1.5C 42.8333,1.5 35.1667,1.5 27.5,1.5C 27.5,9.16667 27.5,16.8333 27.5,24.5C 26.791,25.404 25.791,25.7373 24.5,25.5C 24.5,25.1667 24.5,24.8333 24.5,24.5C 24.5,16.8333 24.5,9.16667 24.5,1.5C 16.8333,1.5 9.16667,1.5 1.5,1.5C 1.5,9.16667 1.5,16.8333 1.5,24.5C 1.15829,25.3382 0.491622,25.6716 -0.5,25.5C -0.5,16.8333 -0.5,8.16667 -0.5,-0.5 Z M 24.5,24.5 C 16.8333,24.5 9.16667,24.5 1.5,24.5C 1.5,16.8333 1.5,9.16667 1.5,1.5C 9.16667,1.5 16.8333,1.5 24.5,1.5C 24.5,9.16667 24.5,16.8333 24.5,24.5 Z M 50.5,24.5 C 42.8333,24.5 35.1667,24.5 27.5,24.5C 27.5,16.8333 27.5,9.16667 27.5,1.5C 35.1667,1.5 42.8333,1.5 50.5,1.5C 50.5,9.16667 50.5,16.8333 50.5,24.5 Z"/></g>
<g><path style="opacity:0.536" fill="#fec800" d="M 51.5,-0.5 C 53.5,-0.5 55.5,-0.5 57.5,-0.5C 55.4905,0.0173507 54.1571,0.684017 53.5,1.5C 53.5,9.16667 53.5,16.8333 53.5,24.5C 61.1667,24.5 68.8333,24.5 76.5,24.5C 74.9689,25.9245 75.3023,26.5912 77.5,26.5C 77.5,26.8333 77.5,27.1667 77.5,27.5C 76.1667,27.5 74.8333,27.5 73.5,27.5C 72.5,24.8333 71.5,24.8333 70.5,27.5C 67.5,27.5 64.5,27.5 61.5,27.5C 61.2144,25.0673 60.5477,25.0673 59.5,27.5C 54.8333,27.5 50.1667,27.5 45.5,27.5C 44.3409,25.6231 42.6742,25.1231 40.5,26C 41.4158,26.2784 42.0825,26.7784 42.5,27.5C 41.5,27.5 40.5,27.5 39.5,27.5C 38.8333,24.8333 38.1667,24.8333 37.5,27.5C 32.5,27.5 27.5,27.5 22.5,27.5C 22.369,26.7611 22.5357,26.0944 23,25.5C 23.69,26.7383 24.19,26.7383 24.5,25.5C 25.791,25.7373 26.791,25.404 27.5,24.5C 35.1667,24.5 42.8333,24.5 50.5,24.5C 51.4991,16.9205 51.8324,8.58713 51.5,-0.5 Z"/></g>
<g><path style="opacity:0.752" fill="#fec700" d="M 57.5,-0.5 C 64.1667,-0.5 70.8333,-0.5 77.5,-0.5C 77.5,8.5 77.5,17.5 77.5,26.5C 75.3023,26.5912 74.9689,25.9245 76.5,24.5C 68.8333,24.5 61.1667,24.5 53.5,24.5C 53.5,16.8333 53.5,9.16667 53.5,1.5C 54.1571,0.684017 55.4905,0.0173507 57.5,-0.5 Z"/></g>
<g><path style="opacity:0.514" fill="#fec700" d="M 14.5,8.5 C 15.2312,8.94185 16.2312,9.10852 17.5,9C 16.2888,9.89277 16.2888,10.7261 17.5,11.5C 19.2174,10.3315 19.8841,8.66485 19.5,6.5C 20.5251,7.37386 21.1918,8.54053 21.5,10C 19.68,11.743 17.68,13.243 15.5,14.5C 15.0237,12.9336 14.357,12.6002 13.5,13.5C 13.7891,16.1906 14.1224,18.8572 14.5,21.5C 12.5853,21.7845 10.9187,21.4511 9.5,20.5C 12.7973,20.6713 13.1306,20.0046 10.5,18.5C 13.4612,17.535 13.1279,16.2016 9.5,14.5C 7.35841,13.2547 5.35841,11.7547 3.5,10C 3.88771,8.04861 4.88771,6.54861 6.5,5.5C 8.97931,7.07608 11.646,8.07608 14.5,8.5 Z"/></g>
<g><path style="opacity:0.54" fill="#fec700" d="M 19.5,6.5 C 19.8841,8.66485 19.2174,10.3315 17.5,11.5C 16.2888,10.7261 16.2888,9.89277 17.5,9C 16.2312,9.10852 15.2312,8.94185 14.5,8.5C 15.7653,7.52066 17.0986,6.52066 18.5,5.5C 19.1067,5.62358 19.44,5.95691 19.5,6.5 Z"/></g>
<g><path style="opacity:0.457" fill="#fec700" d="M 32.5,5.5 C 32.4142,6.4959 32.7476,7.32924 33.5,8C 37.2129,9.66288 40.8796,11.1629 44.5,12.5C 43.1667,13.1667 42.1667,14.1667 41.5,15.5C 40.7784,15.0825 40.2784,14.4158 40,13.5C 39.5026,16.146 39.3359,18.8127 39.5,21.5C 38.5,21.5 37.5,21.5 36.5,21.5C 37.5552,18.9272 37.7218,16.2605 37,13.5C 36.7216,14.4158 36.2216,15.0825 35.5,15.5C 33.8035,13.4595 31.8035,11.6262 29.5,10C 29.8985,8.01883 30.8985,6.51883 32.5,5.5 Z"/></g>
<g><path style="opacity:0.476" fill="#fec700" d="M 65.5,8.5 C 65.4568,12.8926 65.9568,13.2259 67,9.5C 68.0852,8.70689 69.2519,8.04022 70.5,7.5C 71.1411,8.99346 72.1411,9.99346 73.5,10.5C 71.5368,11.8202 69.5368,13.1535 67.5,14.5C 66.8501,14.1961 66.1835,13.8627 65.5,13.5C 64.5258,15.7427 64.1924,18.076 64.5,20.5C 65.5,20.5 66.5,20.5 67.5,20.5C 65.7354,21.4614 63.7354,21.7947 61.5,21.5C 61.8134,18.7531 61.48,16.0865 60.5,13.5C 54.9863,11.8441 54.3197,9.1774 58.5,5.5C 60.7388,6.7878 63.0721,7.7878 65.5,8.5 Z"/></g>
<g><path style="opacity:0.502" fill="#fec700" d="M 73.5,10.5 C 72.1411,9.99346 71.1411,8.99346 70.5,7.5C 69.2519,8.04022 68.0852,8.70689 67,9.5C 65.9568,13.2259 65.4568,12.8926 65.5,8.5C 67.3046,7.76294 68.9713,6.76294 70.5,5.5C 72.2623,6.68847 73.2623,8.35513 73.5,10.5 Z"/></g>
<g><path style="opacity:0.906" fill="#fec700" d="M 32.5,5.5 C 34.5806,6.6227 36.7473,7.6227 39,8.5C 40.9716,6.92188 43.1383,6.08854 45.5,6C 48.4294,8.83891 48.096,11.0056 44.5,12.5C 40.8796,11.1629 37.2129,9.66288 33.5,8C 32.7476,7.32924 32.4142,6.4959 32.5,5.5 Z"/></g>
<g><path style="opacity:0.664" fill="#fec800" d="M 15.5,14.5 C 15.8016,17.0593 15.4682,19.3926 14.5,21.5C 14.1224,18.8572 13.7891,16.1906 13.5,13.5C 14.357,12.6002 15.0237,12.9336 15.5,14.5 Z"/></g>
<g><path style="opacity:0.72" fill="#fec700" d="M 36.5,21.5 C 35.5386,19.7354 35.2053,17.7354 35.5,15.5C 36.2216,15.0825 36.7216,14.4158 37,13.5C 37.7218,16.2605 37.5552,18.9272 36.5,21.5 Z"/></g>
<g><path style="opacity:0.788" fill="#fec700" d="M 41.5,15.5 C 41.9746,18.0821 41.3079,20.0821 39.5,21.5C 39.3359,18.8127 39.5026,16.146 40,13.5C 40.2784,14.4158 40.7784,15.0825 41.5,15.5 Z"/></g>
<g><path style="opacity:0.554" fill="#fec700" d="M 67.5,14.5 C 67.5,16.5 67.5,18.5 67.5,20.5C 66.5,20.5 65.5,20.5 64.5,20.5C 64.1924,18.076 64.5258,15.7427 65.5,13.5C 66.1835,13.8627 66.8501,14.1961 67.5,14.5 Z"/></g>
<g><path style="opacity:0.496" fill="#fec800" d="M 9.5,14.5 C 13.1279,16.2016 13.4612,17.535 10.5,18.5C 13.1306,20.0046 12.7973,20.6713 9.5,20.5C 9.5,18.5 9.5,16.5 9.5,14.5 Z"/></g>
<g><path style="opacity:0.563" fill="#fec700" d="M 1.5,24.5 C 9.16667,24.5 16.8333,24.5 24.5,24.5C 24.5,24.8333 24.5,25.1667 24.5,25.5C 24.19,26.7383 23.69,26.7383 23,25.5C 22.5357,26.0944 22.369,26.7611 22.5,27.5C 14.8333,27.5 7.16667,27.5 -0.5,27.5C -0.5,26.8333 -0.5,26.1667 -0.5,25.5C 0.491622,25.6716 1.15829,25.3382 1.5,24.5 Z"/></g>
<g><path style="opacity:0.808" fill="#fec700" d="M 39.5,27.5 C 38.8333,27.5 38.1667,27.5 37.5,27.5C 38.1667,24.8333 38.8333,24.8333 39.5,27.5 Z"/></g>
<g><path style="opacity:0.914" fill="#fec700" d="M 45.5,27.5 C 44.5,27.5 43.5,27.5 42.5,27.5C 42.0825,26.7784 41.4158,26.2784 40.5,26C 42.6742,25.1231 44.3409,25.6231 45.5,27.5 Z"/></g>
<g><path style="opacity:0.749" fill="#fec700" d="M 61.5,27.5 C 60.8333,27.5 60.1667,27.5 59.5,27.5C 60.5477,25.0673 61.2144,25.0673 61.5,27.5 Z"/></g>
<g><path style="opacity:0.843" fill="#fec700" d="M 73.5,27.5 C 72.5,27.5 71.5,27.5 70.5,27.5C 71.5,24.8333 72.5,24.8333 73.5,27.5 Z"/></g>
<g><path style="opacity:0.365" fill="#fec800" d="M 30.5,32.5 C 29.5,32.5 28.5,32.5 27.5,32.5C 28.5,29.8333 29.5,29.8333 30.5,32.5 Z"/></g>
<g><path style="opacity:0.457" fill="#fec700" d="M 43.5,39.5 C 42.5,39.5 41.5,39.5 40.5,39.5C 40.3359,36.8127 40.5026,34.146 41,31.5C 41.414,31.0426 41.914,30.7093 42.5,30.5C 43.4841,33.4281 43.8174,36.4281 43.5,39.5 Z"/></g>
<g><path style="opacity:0.547" fill="#fec700" d="M 48.5,31.5 C 48.56,30.9569 48.8933,30.6236 49.5,30.5C 50.4841,33.4281 50.8174,36.4281 50.5,39.5C 49.1667,39.5 47.8333,39.5 46.5,39.5C 46.2148,37.712 46.5481,36.0453 47.5,34.5C 48.2508,35.376 48.7508,36.376 49,37.5C 49.1667,36.8333 49.3333,36.1667 49.5,35.5C 48.6476,33.9131 48.3143,32.5798 48.5,31.5 Z"/></g>
<g><path style="opacity:0.618" fill="#fec700" d="M 57.5,39.5 C 56.5,39.5 55.5,39.5 54.5,39.5C 55.7753,38.9522 56.442,37.6188 56.5,35.5C 56.2985,31.5761 55.7985,31.5761 55,35.5C 54.7679,34.2625 54.2679,33.2625 53.5,32.5C 54.2545,30.5337 55.4212,30.2004 57,31.5C 57.4974,34.146 57.6641,36.8127 57.5,39.5 Z"/></g>
<g><path style="opacity:0.502" fill="#fec700" d="M 24.5,39.5 C 22.8333,39.5 21.1667,39.5 19.5,39.5C 19.3359,36.8127 19.5026,34.146 20,31.5C 23.1499,29.8388 24.6499,30.8388 24.5,34.5C 20.5,35.1667 20.5,35.8333 24.5,36.5C 24.5,37.5 24.5,38.5 24.5,39.5 Z"/></g>
<g><path style="opacity:0.493" fill="#fec700" d="M 38.5,39.5 C 36.8333,39.5 35.1667,39.5 33.5,39.5C 34.18,36.9379 34.3467,34.2713 34,31.5C 36.1667,30 37.6667,30.5 38.5,33C 38.0051,35.0094 38.0051,37.1761 38.5,39.5 Z"/></g>
<g><path style="opacity:0.461" fill="#fec700" d="M 48.5,31.5 C 48.3143,32.5798 48.6476,33.9131 49.5,35.5C 49.3333,36.1667 49.1667,36.8333 49,37.5C 48.7508,36.376 48.2508,35.376 47.5,34.5C 46.5481,36.0453 46.2148,37.712 46.5,39.5C 46.1667,39.5 45.8333,39.5 45.5,39.5C 45.1826,36.4281 45.5159,33.4281 46.5,30.5C 47.1835,30.8627 47.8501,31.1961 48.5,31.5 Z"/></g>
<g><path style="opacity:0.53" fill="#fec700" d="M 27.5,32.5 C 28.5,32.5 29.5,32.5 30.5,32.5C 30.9926,34.8056 31.3259,37.139 31.5,39.5C 30.8333,39.5 30.1667,39.5 29.5,39.5C 29.1667,38.1667 28.8333,38.1667 28.5,39.5C 27.8333,39.5 27.1667,39.5 26.5,39.5C 26.448,37.0971 26.7814,34.7638 27.5,32.5 Z"/></g>
<g><path style="opacity:0.58" fill="#fec700" d="M 53.5,32.5 C 54.2679,33.2625 54.7679,34.2625 55,35.5C 55.7985,31.5761 56.2985,31.5761 56.5,35.5C 56.442,37.6188 55.7753,38.9522 54.5,39.5C 54.1667,39.5 53.8333,39.5 53.5,39.5C 53.5,37.1667 53.5,34.8333 53.5,32.5 Z"/></g>
</svg>
